<svg xmlns="http://www.w3.org/2000/svg" version="1.1" xmlns:xlink="http://www.w3.org/1999/xlink" width="512" height="512" x="0" y="0" viewBox="0 0 64 64" style="enable-background:new 0 0 512 512" xml:space="preserve"><g><g data-name="Layer 23"><path fill="#068c38" d="M64 40.23c0 4.926-5.081 7.9-9.542 7.765a10.22 10.22 0 0 1-6.207-2.283c-.877-.718-1.733-1.464-2.6-2.2q-4.012-3.39-8.031-6.775L32 32l12.292-10.367a42.4 42.4 0 0 1 5.139-4.189C54 14.691 61.343 15.929 63.5 21.252a7.08 7.08 0 0 1-2.213 8.026c-1.058.922-2.151 1.815-3.227 2.722C60.7 34.224 64 36.369 64 40.23zM48 54.78c0 4.842-3.808 10.24-9.185 9.067-3.085-.673-4.905-3.521-6.815-5.787-2.345 2.783-4.655 6.273-8.8 5.916-5.86-.507-8.29-7.575-6.681-12.514.858-2.635 2.988-4.653 4.74-6.729l5.5-6.523L32 32q6.018 7.137 12.038 14.27c.662.783 1.362 1.548 1.981 2.367A10.219 10.219 0 0 1 48 54.78z" opacity="1" data-original="#068c38"></path><path fill="#39b54a" d="M48 9.22c0 3.12-1.394 5.471-3.328 7.76L42.46 19.6l-7.911 9.38L32 32V6.851c0-.637-.071-.826.335-1.308a35.4 35.4 0 0 1 3.193-3.666 6.926 6.926 0 0 1 9.055-.295A9.835 9.835 0 0 1 48 9.22z" opacity="1" data-original="#39b54a"></path><path fill="#068c38" d="M48 54.78a9.7 9.7 0 0 1-3.811 7.931 6.848 6.848 0 0 1-7.8.089 19.882 19.882 0 0 1-3.7-3.922c-.521-.617-.69-.7-.69-1.437V32q6.018 7.137 12.038 14.27c.662.783 1.362 1.548 1.981 2.367A10.219 10.219 0 0 1 48 54.78z" opacity="1" data-original="#068c38"></path><path d="M48 54.78a9.7 9.7 0 0 1-3.811 7.931 6.848 6.848 0 0 1-7.8.089 19.882 19.882 0 0 1-3.7-3.922c-.521-.617-.69-.7-.69-1.437V32q6.018 7.137 12.038 14.27c.662.783 1.362 1.548 1.981 2.367A10.219 10.219 0 0 1 48 54.78z" opacity="1" fill="#00000020" data-original="#00000020"></path><path fill="#068c38" d="M64 23.77a7.428 7.428 0 0 1-2.839 5.617 29.969 29.969 0 0 1-2.962 2.5c-.9.425-2.49.117-3.489.117H32l10.138-8.551 3.147-2.655c2.508-2.118 4.774-4.313 8.211-4.719C58.212 15.518 64 18.449 64 23.77z" opacity="1" data-original="#068c38"></path><path fill="#39b54a" d="M32 32H5.94L2.7 29.27a7.193 7.193 0 0 1-2.7-5.5 6.576 6.576 0 0 1 .68-2.92c.11-.23.24-.46.37-.69a8.022 8.022 0 0 1 1.65-1.88 10.462 10.462 0 0 1 13.04 0l3.23 2.73 2.22 1.87z" opacity="1" data-original="#39b54a"></path><path fill="#fff" d="M32 32H5.94L2.7 29.27a7.193 7.193 0 0 1-2.7-5.5 6.576 6.576 0 0 1 .68-2.92c.11-.23.24-.46.37-.69a8.022 8.022 0 0 1 1.65-1.88 10.462 10.462 0 0 1 13.04 0l3.23 2.73 2.22 1.87z" opacity=".4"></path><path fill="#068c38" d="M32 32 18.97 42.99l-3.23 2.73A10.122 10.122 0 0 1 9.22 48a10.908 10.908 0 0 1-2.67-.33 9.63 9.63 0 0 1-3.85-1.95 8.052 8.052 0 0 1-1.65-1.88c-.13-.23-.26-.46-.37-.69a6.9 6.9 0 0 1 2.02-8.42L5.94 32z"></path><path fill="#39b54a" d="M64 40.23a7.174 7.174 0 0 1-2.7 5.49 10.462 10.462 0 0 1-13.04 0l-3.23-2.73-5.44-4.59L32 32h26.06l3.24 2.73a7.193 7.193 0 0 1 2.7 5.5z"></path><path d="M64 40.23a7.174 7.174 0 0 1-2.7 5.49 10.462 10.462 0 0 1-13.04 0l-3.23-2.73-5.44-4.59L32 32h26.06l3.24 2.73a7.193 7.193 0 0 1 2.7 5.5z" opacity=".2"></path><path fill="#39b54a" d="M32 32v24.093a9.6 9.6 0 0 1 0 1.77c-.118.582-.723 1.055-1.11 1.515a21.334 21.334 0 0 1-2.779 3.055c-4 3.192-9.326 1.018-11.231-3.4a10.766 10.766 0 0 1 1.926-11.393q1.572-1.858 3.141-3.718z"></path><path fill="#068c38" d="M32 5.94V32l-9.329-11.058q-1.146-1.361-2.294-2.721a26.991 26.991 0 0 1-3.06-3.866c-2.578-4.541-1.328-11.592 3.8-13.8a7.069 7.069 0 0 1 8.157 2.151C30.2 3.767 31.092 4.862 32 5.94z"></path><g fill="#fff"><path d="M32 5.94V32l-9.329-11.058q-1.146-1.361-2.294-2.721a26.991 26.991 0 0 1-3.06-3.866c-2.578-4.541-1.328-11.592 3.8-13.8a7.069 7.069 0 0 1 8.157 2.151C30.2 3.767 31.092 4.862 32 5.94z" opacity=".4"></path><path d="M28 10c0 2.292-1.135 6-4 6s-4-3.7-4-6 1.134-6.007 4-6 4 3.7 4 6z" opacity=".4"></path><ellipse cx="10" cy="24" opacity=".4" rx="6" ry="4"></ellipse></g></g></g></svg>