<svg xmlns="http://www.w3.org/2000/svg" version="1.1" xmlns:xlink="http://www.w3.org/1999/xlink" width="512" height="512" x="0" y="0" viewBox="0 0 64 64" style="enable-background:new 0 0 512 512" xml:space="preserve"><g><g data-name="Layer 26"><path fill="#ffcc00" d="M48.92 40.54a1.032 1.032 0 0 0-.28.89l3.48 21.36a1.036 1.036 0 0 1-1.52 1.08L32.5 53.85a1.044 1.044 0 0 0-1 0L13.4 63.87a1.036 1.036 0 0 1-1.52-1.08l1.02-6.26 1.2-7.39 1.26-7.71a.593.593 0 0 0 0-.23.966.966 0 0 0-.28-.66L.3 25.37a1.037 1.037 0 0 1 .58-1.75l20.34-3.11a1.034 1.034 0 0 0 .78-.59L31.06.6a1.036 1.036 0 0 1 1.88 0L42 19.92a.219.219 0 0 0 .03.05 1.03 1.03 0 0 0 .75.54l6.61 1.01 9.44 1.44 4.29.66a1.037 1.037 0 0 1 .58 1.75z" opacity="1" data-original="#ffcc00"></path><path fill="#fff" d="M42.38 20.35 15.36 41.18a.985.985 0 0 0-.28-.64L.3 25.37a1.037 1.037 0 0 1 .58-1.75l20.34-3.11a1.034 1.034 0 0 0 .78-.59L31.06.6a1.036 1.036 0 0 1 1.88 0L42 19.92a.219.219 0 0 0 .03.05.918.918 0 0 0 .35.38z" opacity=".4"></path><path d="M48.92 40.54a1.032 1.032 0 0 0-.28.89l3.48 21.36a1.036 1.036 0 0 1-1.52 1.08L32.5 53.85a1.044 1.044 0 0 0-1 0L13.4 63.87a1.036 1.036 0 0 1-1.52-1.08l1.02-6.26 1.2-7.39 1.26-7.71a.593.593 0 0 0 0-.23v-.02l27.02-20.83a1.159 1.159 0 0 0 .4.16l6.61 1.01 9.44 1.44 4.29.66a1.037 1.037 0 0 1 .58 1.75z" opacity=".1"></path><path fill="#ffd447" d="m32.5 47.031 11.704 6.477a1.035 1.035 0 0 0 1.522-1.073l-2.26-13.87a1.037 1.037 0 0 1 .28-.89l9.611-9.862a1.036 1.036 0 0 0-.584-1.748L39.58 24.046a1.035 1.035 0 0 1-.78-.584l-5.863-12.506a1.034 1.034 0 0 0-1.874 0L25.2 23.462a1.035 1.035 0 0 1-.78.584l-13.193 2.018a1.036 1.036 0 0 0-.585 1.748l9.611 9.862a1.037 1.037 0 0 1 .281.89l-2.26 13.87a1.035 1.035 0 0 0 1.522 1.074l11.703-6.477a1.034 1.034 0 0 1 1.002 0z"></path><path fill="#fff" d="m32.27 40.085 6.298 3.484a.557.557 0 0 0 .819-.577L38.17 35.53a.558.558 0 0 1 .15-.479l5.173-5.305a.557.557 0 0 0-.314-.94l-7.1-1.085a.557.557 0 0 1-.42-.314l-3.156-6.728a.557.557 0 0 0-1.008 0l-3.155 6.728a.557.557 0 0 1-.42.314l-7.1 1.085a.557.557 0 0 0-.315.94l5.172 5.305a.558.558 0 0 1 .151.479l-1.216 7.46a.557.557 0 0 0 .82.578l6.298-3.484a.556.556 0 0 1 .538 0z" opacity=".4"></path></g></g></svg>