<svg xmlns="http://www.w3.org/2000/svg" version="1.1" xmlns:xlink="http://www.w3.org/1999/xlink" width="512" height="512" x="0" y="0" viewBox="0 0 24 24" style="enable-background:new 0 0 512 512" xml:space="preserve" class=""><g><g fill="#000" fill-rule="evenodd" clip-rule="evenodd"><path d="M10.47 9.429a.75.75 0 0 1 1.06.001l4.07 4.08a.75.75 0 0 1-1.061 1.06l-4.07-4.08a.75.75 0 0 1 .001-1.061z" fill="#f5f7fa" opacity="1" data-original="#000000" class=""></path><path d="M15.6 9.429a.75.75 0 0 1 0 1.06l-4.07 4.08a.75.75 0 0 1-1.061-1.059l4.07-4.08a.75.75 0 0 1 1.06-.001z" fill="#f5f7fa" opacity="1" data-original="#000000" class=""></path><path d="M8 6.25h10.36A2.75 2.75 0 0 1 21.11 9v6a2.75 2.75 0 0 1-2.75 2.75H8a2.753 2.753 0 0 1-2.146-1.031l-2.4-3a2.751 2.751 0 0 1 0-3.437l2.4-3A2.751 2.751 0 0 1 8 6.25zm0 1.5a1.25 1.25 0 0 0-.975.469l-2.4 3a1.25 1.25 0 0 0 0 1.562l2.4 3A1.25 1.25 0 0 0 8 16.25h10.36A1.25 1.25 0 0 0 19.61 15V9a1.25 1.25 0 0 0-1.25-1.25z" fill="#f5f7fa" opacity="1" data-original="#000000" class=""></path></g></g></svg>