<svg xmlns="http://www.w3.org/2000/svg" version="1.1" xmlns:xlink="http://www.w3.org/1999/xlink" width="512" height="512" x="0" y="0" viewBox="0 0 64 64" style="enable-background:new 0 0 512 512" xml:space="preserve"><g><g data-name="Layer 29"><path fill="#ffd447" d="M38 5a4.885 4.885 0 0 1-2.8 4.23A6.816 6.816 0 0 1 32 10c-3.31 0-6-2.24-6-5a3.814 3.814 0 0 1 .04-.59C26.39 1.93 28.93 0 32 0s5.61 1.93 5.96 4.41A3.814 3.814 0 0 1 38 5z" opacity="1" data-original="#ffd447"></path><path fill="#ffd447" d="M64 42v10H0V42h.14a6.005 6.005 0 0 1 2.46-3.69A39.832 39.832 0 0 0 8 34c1.01-1.01 1.57-3.39 1.87-6.09a69.56 69.56 0 0 0 .27-8.36 10.148 10.148 0 0 1 2.66-7.03 25.657 25.657 0 0 1 13.24-8.11A16.934 16.934 0 0 1 32 4a16.934 16.934 0 0 1 5.96.41 25.657 25.657 0 0 1 13.24 8.11 10.148 10.148 0 0 1 2.66 7.03c-.09 4.63.07 12.38 2.14 14.45a39.832 39.832 0 0 0 5.4 4.31A6.005 6.005 0 0 1 63.86 42z" opacity="1" data-original="#ffd447"></path><path fill="#1a1a1a10" d="M64 42v10H0V42h.14a6.005 6.005 0 0 1 2.46-3.69A39.832 39.832 0 0 0 8 34c1.01-1.01 1.57-3.39 1.87-6.09C26.28 31.13 46.24 32.72 42 20a24.286 24.286 0 0 0-6.8-10.77 22.012 22.012 0 0 0-9.16-4.82C26.39 1.93 28.93 0 32 0s5.61 1.93 5.96 4.41a25.657 25.657 0 0 1 13.24 8.11 10.148 10.148 0 0 1 2.66 7.03c-.09 4.63.07 12.38 2.14 14.45a39.832 39.832 0 0 0 5.4 4.31A6.005 6.005 0 0 1 63.86 42z" opacity="1" data-original="#1a1a1a10"></path><path fill="#ffd447" d="M64 42v10H0V42h.14a5.94 5.94 0 0 1 2.35-3.6 129.808 129.808 0 0 1 59.03 0 5.981 5.981 0 0 1 2.34 3.6z" opacity="1" data-original="#ffd447"></path><path fill="#fff" d="M22.51 45.31C9.47 46.2 0 48.85 0 52V42h.14a5.94 5.94 0 0 1 2.35-3.6 130.92 130.92 0 0 1 20.32-3.07 19.35 19.35 0 0 0-.3 9.98z" opacity=".2"></path><ellipse cx="32" cy="52" fill="#ffd447" rx="32" ry="7"></ellipse><path fill="#1a1a1a" d="M64 52c0 3.87-14.33 7-32 7S0 55.87 0 52z" opacity=".2"></path><path fill="#fff" d="M64 52H0c0-3.87 14.33-7 32-7s32 3.13 32 7z" opacity=".4"></path><ellipse cx="32" cy="52" fill="#534741" rx="26" ry="3"></ellipse><circle cx="32" cy="57" r="7" fill="#ffd447"></circle><path fill="#1a1a1a" d="M39 57a6.999 6.999 0 0 1-13.63 2.24 6.993 6.993 0 0 0 11.26-7.48A6.954 6.954 0 0 1 39 57z" opacity=".1"></path><ellipse cx="25" cy="19" fill="#fff" opacity=".4" rx="8" ry="10" transform="rotate(-82 25.012 19.003)"></ellipse><ellipse cx="21.722" cy="17.524" fill="#fff" opacity=".4" rx="5.015" ry="6.269" transform="rotate(-82 21.733 17.527)"></ellipse><path fill="#1a1a1a" d="M64 42v10c0-3.87-14.33-7-32-7-1.65 0-3.28.03-4.87.08a168.605 168.605 0 0 0-4.62.23 19.35 19.35 0 0 1 .3-9.98c.83-.06 1.65-.11 2.45-.15l1.19-.06q.9-.045 1.77-.06c.25-.01.5-.02.75-.02 1.05-.03 2.06-.04 3.03-.04a129.877 129.877 0 0 1 29.52 3.4 5.981 5.981 0 0 1 2.34 3.6z" opacity=".2"></path><g fill="#fff"><circle cx="30" cy="55" r="3" opacity=".4"></circle><circle cx="29.293" cy="54.293" r="2" opacity=".4"></circle></g></g></g></svg>