<svg xmlns="http://www.w3.org/2000/svg" version="1.1" xmlns:xlink="http://www.w3.org/1999/xlink" width="512" height="512" x="0" y="0" viewBox="0 0 64 64" style="enable-background:new 0 0 512 512" xml:space="preserve" class=""><g><g data-name="Layer 30"><path fill="#ffcc00" d="M64 32A31.989 31.989 0 0 1 8 53.16a31.275 31.275 0 0 1-4.47-6.54 30.212 30.212 0 0 1-1.44-3.23 31.469 31.469 0 0 1-1.92-8.08A32.891 32.891 0 0 1 0 32 32.007 32.007 0 0 1 29 .14C29.99.05 30.99 0 32 0a31.855 31.855 0 0 1 5.3.44 30.428 30.428 0 0 1 3.46.77 31.614 31.614 0 0 1 7.29 3.1A32.007 32.007 0 0 1 64 32z" opacity="1" data-original="#ffcc00"></path><path fill="#1a1a1a10" d="M64 32A32 32 0 0 1 8.67 53.91a32.274 32.274 0 0 0 35.111-.3A32.009 32.009 0 0 0 49.33 5.09 32.275 32.275 0 0 1 64 32z" opacity="1" data-original="#1a1a1a10"></path><path fill="#ffd447" d="M56 32a24 24 0 0 1-38.822 18.872A24.228 24.228 0 0 1 10.673 21 24.236 24.236 0 0 1 37.187 8.566 24.225 24.225 0 0 1 56 32z" opacity="1" data-original="#ffd447" class=""></path><path fill="#ffe878" d="M53 32a21 21 0 0 1-35.759 14.941 21 21 0 0 1 18-35.69A21.181 21.181 0 0 1 53 32z" opacity="1" data-original="#ffe878"></path><path fill="#ffcc00" d="M30.047 46a28.284 28.284 0 0 1-4.064-1.068 14.1 14.1 0 0 1-2.646-1.332c-.362-.234-1.287-.715-1.278-1.106 0-.234.361-.668.472-.872l.762-1.41 1.014-1.873a11.809 11.809 0 0 0 7.279 2.712c1.9.054 4.773-.267 5.373-2.477.683-2.515-1.62-3.487-3.645-3.887a34.451 34.451 0 0 1-5.883-1.338c-4.416-1.715-5.324-7.705-3.033-11.482 2.531-4.174 8.6-4.535 12.793-3.167 1.18.386 3.13 1.018 4 1.969.439.482.238.019.179.416a3.054 3.054 0 0 1-.343.713l-1.659 3.446a11.83 11.83 0 0 0-5.517-2.253 6.753 6.753 0 0 0-4.639.9 2.749 2.749 0 0 0-.448 3.827c1.038 1.285 3.045 1.5 4.555 1.821 3.069.648 6.635 1.4 8.049 4.578a8.784 8.784 0 0 1-1.454 9.2C37.319 45.963 33.492 46 30.047 46z" opacity="1" data-original="#ffcc00"></path><path fill="#ffcc00" d="M30 43h4v6h-4zM30 15h4v6h-4z" opacity="1" data-original="#ffcc00"></path><g fill="#fff"><path d="M13.16 46.86 8 53.16a31.275 31.275 0 0 1-4.47-6.54l5.72-6.98a23.823 23.823 0 0 0 3.91 7.22zM48.05 4.31l-3.957 4.83a9.273 9.273 0 0 1-.918 1.12c-.4.352-.118.44-.77.123A23.3 23.3 0 0 0 35.03 8.2l5.73-6.99a31.614 31.614 0 0 1 7.29 3.1zM40.94 12.99 32.2 23.647 18.326 40.559 15.11 44.48a20.83 20.83 0 0 1-3.288-6.658c-.075-.26-.313-.775-.242-1.027.112-.394.757-.922 1.01-1.231L18 28.962l13.141-16.017a8.552 8.552 0 0 1 1.5-1.828c.574-.346 1.931.031 2.6.134a20.862 20.862 0 0 1 5.699 1.739zM8 32a22.78 22.78 0 0 0 .31 3.81l-6.22 7.58a31.469 31.469 0 0 1-1.92-8.08l9.16-11.17A23.542 23.542 0 0 0 8 32zM37.3.44l-6.22 7.58a23.781 23.781 0 0 0-11.25 3.3L29 .14C29.99.05 30.99 0 32 0a31.855 31.855 0 0 1 5.3.44zM28.38 11.32l-15.245 18.6-2.125 2.59c-.601-10.21 7.51-19.484 17.37-21.19z" opacity="1" fill="#ffffff40" data-original="#ffffff40" class=""></path></g></g></g></svg>